<svg id="_0330_closed_store_online" xmlns="http://www.w3.org/2000/svg" viewBox="0 0 500 500" data-imageid="store-closed-55" imageName="Store Closed" class="illustrations_image" style="width: 151px;"><defs><style>.cls-1_store-closed-55{fill:#fff;}.cls-2_store-closed-55{fill:#a5a5a5;}.cls-3_store-closed-55{opacity:.58;}.cls-3_store-closed-55,.cls-4_store-closed-55,.cls-5_store-closed-55,.cls-6_store-closed-55,.cls-7_store-closed-55,.cls-8_store-closed-55,.cls-9_store-closed-55{fill:none;}.cls-4_store-closed-55{opacity:.56;}.cls-10_store-closed-55{fill:#e6e6e6;}.cls-5_store-closed-55{opacity:.03;}.cls-6_store-closed-55{opacity:.09;}.cls-7_store-closed-55{opacity:.73;}.cls-8_store-closed-55{opacity:.5;}.cls-9_store-closed-55{opacity:.75;}.cls-11_store-closed-55{fill:#24285b;}.cls-12_store-closed-55{fill:#000001;}.cls-13_store-closed-55{fill:#ffd200;}.cls-14_store-closed-55{fill:#68e1fd;}</style></defs><g id="sd_store-closed-55" class="cls-5_store-closed-55"><ellipse class="cls-12_store-closed-55" cx="250" cy="457.21" rx="221.89" ry="13.7"/></g><g id="plant_store-closed-55"><g class="cls-3_store-closed-55"><path class="cls-14_store-closed-55 targetColor" d="m376.08,441.41s-14.05-3.84-17.1-16.91c0,0,21.77-4.4,22.39,18.07l-5.28-1.16Z" style="fill: rgb(104, 225, 253);"/></g><g class="cls-7_store-closed-55"><path class="cls-14_store-closed-55 targetColor" d="m377.8,440.02s-9.81-15.52-1.18-30.02c0,0,16.55,10.51,9.2,30.06l-8.02-.03Z" style="fill: rgb(104, 225, 253);"/></g><path class="cls-14_store-closed-55 targetColor" d="m380.33,440.03s5.19-16.39,20.86-19.49c0,0,2.94,10.64-10.15,19.53l-10.71-.04Z" style="fill: rgb(104, 225, 253);"/><polygon class="cls-11_store-closed-55" points="370.14 439.66 372.99 459.14 390.93 459.22 393.57 439.76 370.14 439.66"/></g><g id="promo_store-closed-55"><polygon class="cls-13_store-closed-55" points="78.92 460.11 92.27 400.42 136.76 400.42 123.78 460.11 78.92 460.11"/><polygon class="cls-13_store-closed-55" points="136.76 400.42 150.1 460.11 123.78 460.11 136.76 400.42"/><g class="cls-6_store-closed-55"><polygon class="cls-12_store-closed-55" points="136.76 400.42 150.1 460.11 123.78 460.11 136.76 400.42"/></g><g class="cls-8_store-closed-55"><polygon class="cls-1_store-closed-55" points="97.83 410.8 92.27 435.64 120.63 435.64 125.45 410.8 97.83 410.8"/></g></g><g id="closed_store-closed-55"><polygon class="cls-2_store-closed-55" points="214.87 329.48 193.59 440.41 297.43 440.41 276.15 329.48 214.87 329.48"/><rect class="cls-10_store-closed-55" x="179.4" y="429.45" width="131.57" height="22.38"/><rect class="cls-10_store-closed-55" x="48.43" y="94.39" width="405.35" height="263.79"/><g class="cls-4_store-closed-55"><rect class="cls-1_store-closed-55" x="48.43" y="94.39" width="405.35" height="233.48"/></g><circle class="cls-11_store-closed-55" cx="79.55" cy="100.1" r="8.53"/><circle class="cls-14_store-closed-55 targetColor" cx="104.92" cy="100.1" r="8.53" style="fill: rgb(104, 225, 253);"/><circle class="cls-13_store-closed-55" cx="128.82" cy="100.1" r="8.53"/><g class="cls-5_store-closed-55"><polygon class="cls-12_store-closed-55" points="49.31 133.58 49.31 168.84 454.66 168.84 454.66 104.62 283.74 67.01 94.54 98.05 65.51 106.17 49.58 130.15 49.31 133.58"/></g><polygon class="cls-14_store-closed-55 targetColor" points="453.21 70.83 250.85 70.83 249.15 70.83 46.79 70.83 11.89 132.08 249.15 132.08 250.85 132.08 488.11 132.08 453.21 70.83" style="fill: rgb(104, 225, 253);"/><path class="cls-14_store-closed-55 targetColor" d="m64.63,132.08h52.74v8.32c0,9.9-8.04,17.93-17.93,17.93h-16.87c-9.9,0-17.93-8.04-17.93-17.93v-8.32h0Z" style="fill: rgb(104, 225, 253);"/><path class="cls-14_store-closed-55 targetColor" d="m170.88,132.08h52.74v8.32c0,9.9-8.04,17.93-17.93,17.93h-16.87c-9.9,0-17.93-8.04-17.93-17.93v-8.32h0Z" style="fill: rgb(104, 225, 253);"/><path class="cls-14_store-closed-55 targetColor" d="m276.37,132.08h52.74v8.32c0,9.9-8.04,17.93-17.93,17.93h-16.87c-9.9,0-17.93-8.04-17.93-17.93v-8.32h0Z" style="fill: rgb(104, 225, 253);"/><path class="cls-14_store-closed-55 targetColor" d="m382.62,132.08h52.74v8.32c0,9.9-8.04,17.93-17.93,17.93h-16.87c-9.9,0-17.93-8.04-17.93-17.93v-8.32h0Z" style="fill: rgb(104, 225, 253);"/><path class="cls-14_store-closed-55 targetColor" d="m223.63,132.08v.21c0,14.38,11.66,26.04,26.04,26.04h.66c14.38,0,26.04-11.66,26.04-26.04v-61.47h-52.74v61.26Z" style="fill: rgb(104, 225, 253);"/><path class="cls-14_store-closed-55 targetColor" d="m118.14,132.08v.21c0,14.38,11.66,26.04,26.04,26.04h.66c14.38,0,26.04-11.66,26.04-26.04v-.21l6.26-61.26h-46.44l-12.57,61.26Z" style="fill: rgb(104, 225, 253);"/><path class="cls-14_store-closed-55 targetColor" d="m11.89,132.08v.21c0,14.38,11.66,26.04,26.04,26.04h.66c14.38,0,26.04-11.66,26.04-26.04v-.21l23.44-61.26h-41.29l-34.9,61.26Z" style="fill: rgb(104, 225, 253);"/><path class="cls-14_store-closed-55 targetColor" d="m369.29,70.83h-46.44l6.26,61.26h.76v.21c0,14.38,11.66,26.04,26.04,26.04h.66c14.38,0,26.04-11.66,26.04-26.04v-.21h-.76l-12.57-61.26Z" style="fill: rgb(104, 225, 253);"/><path class="cls-14_store-closed-55 targetColor" d="m453.21,70.83h-41.29l23.44,61.26v.21c0,14.38,11.66,26.04,26.04,26.04h.66c14.38,0,26.04-11.66,26.04-26.04v-.21l-34.9-61.26Z" style="fill: rgb(104, 225, 253);"/><polygon class="cls-14_store-closed-55 targetColor" points="177.9 230.24 176.39 228.05 250.05 177.11 315.8 228.09 314.17 230.2 249.95 180.42 177.9 230.24" style="fill: rgb(104, 225, 253);"/><g class="cls-9_store-closed-55"><path class="cls-1_store-closed-55" d="m223.63,132.08v.21c0,14.38,11.66,26.04,26.04,26.04h.66c14.38,0,26.04-11.66,26.04-26.04v-61.47h-52.74v61.26Z"/><path class="cls-1_store-closed-55" d="m118.14,132.08v.21c0,14.38,11.66,26.04,26.04,26.04h.66c14.38,0,26.04-11.66,26.04-26.04v-.21l6.26-61.26h-46.44l-12.57,61.26Z"/><path class="cls-1_store-closed-55" d="m11.89,132.08v.21c0,14.38,11.66,26.04,26.04,26.04h.66c14.38,0,26.04-11.66,26.04-26.04v-.21l23.44-61.26h-41.29l-34.9,61.26Z"/><path class="cls-1_store-closed-55" d="m369.29,70.83h-46.44l6.26,61.26h.76v.21c0,14.38,11.66,26.04,26.04,26.04h.66c14.38,0,26.04-11.66,26.04-26.04v-.21h-.76l-12.57-61.26Z"/><path class="cls-1_store-closed-55" d="m453.21,70.83h-41.29l23.44,61.26v.21c0,14.38,11.66,26.04,26.04,26.04h.66c14.38,0,26.04-11.66,26.04-26.04v-.21l-34.9-61.26Z"/></g><rect class="cls-14_store-closed-55 targetColor" x="46.79" y="48.18" width="406.99" height="22.65" style="fill: rgb(104, 225, 253);"/><rect class="cls-11_store-closed-55" x="154.42" y="223.31" width="195.13" height="94.1"/><circle class="cls-13_store-closed-55" cx="250" cy="178.77" r="9.93"/><path class="cls-1_store-closed-55" d="m202.14,266.76h-6.06c-.11-.78-.34-1.48-.68-2.1-.34-.61-.78-1.14-1.31-1.57s-1.15-.77-1.85-1-1.45-.35-2.26-.35c-1.47,0-2.74.36-3.83,1.09-1.09.72-1.93,1.77-2.53,3.15-.6,1.38-.9,3.05-.9,5.01s.3,3.72.91,5.09c.6,1.37,1.45,2.41,2.54,3.11s2.35,1.05,3.77,1.05c.8,0,1.55-.11,2.23-.32.69-.21,1.3-.52,1.83-.93.53-.41.98-.91,1.34-1.5.35-.59.6-1.26.74-2.02l6.06.03c-.16,1.3-.55,2.55-1.17,3.75-.62,1.2-1.46,2.28-2.5,3.22-1.05.95-2.29,1.69-3.73,2.24-1.44.55-3.07.82-4.89.82-2.53,0-4.78-.57-6.77-1.72-1.99-1.14-3.56-2.8-4.7-4.96s-1.72-4.79-1.72-7.87.58-5.72,1.74-7.88c1.16-2.17,2.74-3.82,4.73-4.96s4.23-1.71,6.72-1.71c1.64,0,3.16.23,4.57.69,1.41.46,2.65,1.13,3.74,2.01s1.98,1.96,2.66,3.23c.69,1.27,1.13,2.73,1.32,4.37Z"/><path class="cls-1_store-closed-55" d="m206.44,285.17v-28.32h5.99v23.39h12.14v4.94h-18.13Z"/><path class="cls-1_store-closed-55" d="m253.46,271.01c0,3.09-.58,5.72-1.75,7.88-1.17,2.17-2.75,3.82-4.76,4.96s-4.26,1.71-6.76,1.71-4.78-.57-6.78-1.72c-2-1.14-3.58-2.8-4.74-4.96-1.16-2.17-1.74-4.79-1.74-7.87s.58-5.72,1.74-7.88c1.16-2.17,2.74-3.82,4.74-4.96,2-1.14,4.26-1.71,6.78-1.71s4.75.57,6.76,1.71,3.59,2.79,4.76,4.96c1.17,2.17,1.75,4.79,1.75,7.88Zm-6.07,0c0-2-.3-3.69-.89-5.06s-1.43-2.42-2.51-3.13-2.34-1.07-3.79-1.07-2.71.36-3.79,1.07-1.92,1.75-2.51,3.13-.89,3.06-.89,5.06.3,3.69.89,5.06,1.43,2.42,2.51,3.13,2.34,1.06,3.79,1.06,2.71-.35,3.79-1.06,1.92-1.75,2.51-3.13.89-3.06.89-5.06Z"/><path class="cls-1_store-closed-55" d="m273.25,264.99c-.11-1.12-.59-1.98-1.42-2.6-.84-.62-1.98-.93-3.42-.93-.98,0-1.8.14-2.48.41s-1.19.65-1.54,1.13c-.36.48-.53,1.02-.53,1.63-.02.51.09.95.33,1.33.23.38.56.7.97.98s.89.51,1.44.71c.54.2,1.13.37,1.74.5l2.55.61c1.23.28,2.37.65,3.4,1.11,1.03.46,1.93,1.03,2.68,1.7.76.67,1.34,1.47,1.76,2.38.42.91.63,1.96.64,3.14,0,1.73-.45,3.23-1.32,4.5-.87,1.27-2.12,2.25-3.76,2.95-1.64.7-3.61,1.04-5.91,1.04s-4.28-.35-5.97-1.05-3.01-1.74-3.95-3.12c-.95-1.38-1.44-3.09-1.49-5.12h5.79c.07.95.34,1.74.82,2.37.48.63,1.13,1.11,1.95,1.42s1.74.48,2.77.48,1.9-.15,2.65-.44c.75-.29,1.34-.71,1.75-1.23.42-.53.62-1.13.62-1.81,0-.64-.19-1.17-.56-1.6-.37-.43-.92-.8-1.63-1.11-.71-.3-1.59-.58-2.62-.83l-3.08-.77c-2.39-.58-4.27-1.49-5.66-2.72s-2.07-2.9-2.06-4.99c0-1.72.45-3.21,1.38-4.49s2.2-2.28,3.82-3c1.62-.72,3.47-1.08,5.53-1.08s3.94.36,5.51,1.08c1.57.72,2.8,1.72,3.67,3s1.33,2.77,1.36,4.45h-5.74Z"/><path class="cls-1_store-closed-55" d="m283.39,285.17v-28.32h19.08v4.94h-13.1v6.75h12.11v4.94h-12.11v6.76h13.15v4.94h-19.14Z"/><path class="cls-1_store-closed-55" d="m317.28,285.17h-10.04v-28.32h10.12c2.85,0,5.3.56,7.36,1.69,2.06,1.13,3.64,2.75,4.75,4.86s1.67,4.64,1.67,7.58-.56,5.49-1.67,7.61c-1.11,2.12-2.7,3.75-4.77,4.88-2.07,1.13-4.54,1.7-7.42,1.7Zm-4.05-5.13h3.8c1.77,0,3.26-.32,4.47-.95,1.21-.63,2.12-1.61,2.74-2.95.61-1.33.92-3.05.92-5.17s-.31-3.8-.92-5.13c-.61-1.33-1.52-2.3-2.73-2.93-1.21-.63-2.7-.94-4.47-.94h-3.82v18.06Z"/></g></svg>