<svg version="1.1" id="_0330_closed_store_online" xmlns="http://www.w3.org/2000/svg" xmlns:xlink="http://www.w3.org/1999/xlink" x="0px" y="0px" viewBox="0 0 500 500" style="width: 151px;" xml:space="preserve" data-imageid="store-closed-41" imageName="Store Closed" class="illustrations_image">
<style type="text/css">
	.st0_store-closed-41{fill:#70CC40;}
	.st1_store-closed-41{fill:#093F68;}
	.st2_store-closed-41{fill:#68E1FD;}
	.st3_store-closed-41{fill:#FFFFFF;}
	.st4_store-closed-41{fill:#F56132;}
	.st5_store-closed-41{fill:#FFBC0E;}
</style>
<g id="grass_store-closed-41">
	<path class="st0_store-closed-41" d="M321.1,318.9c14.2-0.2,26.7,5.5,28.8,20.1c0,0,15.3-6.9,24.8,0.3c12.8,9.6,4.1,21.4,4.1,21.4&#10;&#9;&#9;c6.2-0.3,18,6.6,19.7,17c1.4,8.8-2.5,19.5-15.8,19.5h-97.9c2.4-4.2,2.3-9.3,2.6-14.1c1-17.6,9.1-30,18.8-43.9&#10;&#9;&#9;C314.3,327.4,304.8,319.2,321.1,318.9z"/>
	<path class="st1_store-closed-41" d="M382.6,399h-97.9c-1,0-1.8-0.8-1.8-1.8c0-0.3,0.1-0.6,0.2-0.9c1.9-3.4,2.1-7.4,2.3-11.6l0.1-1.7&#10;&#9;&#9;c1-17.5,8.5-29.6,19.1-44.8c2.9-4.2,3.4-7.9,3.8-11.1c0.7-6.1,1.9-9.8,12.7-9.9h0.9c16,0,26.6,7,29.4,19.5&#10;&#9;&#9;c4.8-1.7,16.4-4.8,24.5,1.3c10.2,7.7,8,16.8,6,21.2c7.3,1.5,16.9,8.6,18.5,18.2c1,6-0.5,11.9-3.8,15.9&#10;&#9;&#9;C393.2,397,388.5,399,382.6,399z M287.6,395.3h95c4.8,0,8.5-1.5,11-4.4c2.7-3.2,3.8-8,3-12.9c-1.5-9.4-12.6-15.7-17.8-15.4&#10;&#9;&#9;c-0.7,0-1.4-0.4-1.7-1c-0.3-0.6-0.3-1.4,0.1-2c0.3-0.4,7.4-10.4-3.7-18.8c-8.5-6.4-22.8-0.1-22.9,0c-0.5,0.2-1.1,0.2-1.6-0.1&#10;&#9;&#9;c-0.5-0.3-0.9-0.8-0.9-1.4c-2.4-17.1-19.6-18.7-26.9-18.6l0,0c-8.3,0.1-8.5,1.9-9.1,6.7c-0.3,4.6-1.8,9-4.4,12.8&#10;&#9;&#9;c-10.2,14.7-17.5,26.4-18.5,42.9l-0.1,1.7C289.1,388.4,288.6,391.9,287.6,395.3L287.6,395.3z"/>
	<path class="st0_store-closed-41" d="M207,397.5c0.6-3.2,0.9-6.5,0.9-9.8c0-19.9-10.1-36.1-22.5-36.1c-2.6,0-5.2,0.7-7.4,2&#10;&#9;&#9;c-1.4-17.7-10.9-25-22.3-25c-22.6,0-22.2,24.3-22.2,24.3c-2.4-1.6-27.8-6.5-31.9,18.9c-2.8,17.3,15,25.7,15,25.7L207,397.5z"/>
	<path class="st1_store-closed-41" d="M207,399.3h-90.4c-0.3,0-0.5-0.1-0.8-0.2c-0.2-0.1-19.1-9.1-16.1-27.6c2-12.1,8.6-17.3,13.8-19.6&#10;&#9;&#9;c5.8-2.3,12.1-2.9,18.2-1.5c0.4-4,1.8-11.7,7.3-17.3c4.1-4.2,9.7-6.3,16.6-6.3c13.2,0,21.8,8.7,23.8,24.1c1.9-0.7,3.9-1.1,5.9-1.1&#10;&#9;&#9;c13.4,0,24.3,17,24.3,37.9c0,3.4-0.3,6.8-0.9,10.1C208.7,398.7,207.9,399.3,207,399.3z M117,395.7h88.4c0.4-2.6,0.6-5.3,0.6-8&#10;&#9;&#9;c0-18.9-9.3-34.2-20.6-34.2c-2.3,0-4.5,0.7-6.5,1.8c-0.9,0.5-2,0.2-2.5-0.7c-0.1-0.2-0.2-0.5-0.2-0.8c-1.2-15-8.5-23.3-20.5-23.3&#10;&#9;&#9;c-5.9,0-10.6,1.8-14,5.2c-6.4,6.5-6.4,17.1-6.4,17.2c0,1-0.8,1.8-1.8,1.9c-0.4,0-0.7-0.1-1.1-0.3c-1-0.6-10.1-2.7-18,1.1&#10;&#9;&#9;c-6.1,2.9-9.8,8.5-11.1,16.6C101,386.8,114.6,394.4,117,395.7L117,395.7z"/>
	<path class="st1_store-closed-41" d="M129.8,364.1c-0.2,0-0.3,0-0.5-0.1c-1-0.3-1.5-1.3-1.3-2.2c0,0,0,0,0,0c3.5-12.8,12.2-11.8,12.5-11.7&#10;&#9;&#9;c1,0.2,1.6,1.2,1.4,2.2c-0.2,0.9-1,1.5-1.9,1.5c-0.3,0-5.9-0.5-8.5,9C131.3,363.5,130.6,364.1,129.8,364.1z"/>
	<path class="st1_store-closed-41" d="M380.9,370.8c-0.8,0-1.5-0.5-1.8-1.3c-2.8-9.9-13.3-9.2-13.8-9.2c-1,0-1.9-0.8-1.9-1.8c0-0.9,0.7-1.7,1.6-1.9&#10;&#9;&#9;c4.8-0.4,14.7,1.6,17.6,11.8c0.3,1-0.3,2-1.3,2.3C381.2,370.8,381.1,370.8,380.9,370.8z"/>
</g>
<g id="device_store-closed-41">
	<path class="st2_store-closed-41 targetColor" d="M343.6,120.3v259.4c0,9.8-8.3,17.8-18.5,17.8H177.9c-10.2,0-18.5-8-18.5-17.8V120.3c0-9.8,8.3-17.8,18.5-17.8&#10;&#9;&#9;h147.2C335.3,102.5,343.6,110.5,343.6,120.3z" style="fill: rgb(104, 225, 253);"/>
	<path class="st1_store-closed-41" d="M325.1,399.3H177.9c-11.2,0-20.4-8.8-20.4-19.6V120.3c0-10.8,9.1-19.6,20.4-19.6h147.2&#10;&#9;&#9;c11.2,0,20.3,8.8,20.3,19.6v259.4C345.4,390.5,336.3,399.3,325.1,399.3z M177.9,104.3c-9.2,0-16.7,7.2-16.7,16v259.4&#10;&#9;&#9;c0,8.8,7.5,16,16.7,16h147.2c9.2,0,16.7-7.2,16.7-16V120.3c0-8.8-7.5-16-16.7-16L177.9,104.3z"/>
	<rect x="159.9" y="136.9" class="st3_store-closed-41" width="183.1" height="220.9"/>
	<path class="st1_store-closed-41" d="M343,359.5H159.9c-1,0-1.8-0.8-1.8-1.8c0,0,0,0,0,0V136.9c0-1,0.8-1.8,1.8-1.8l0,0H343c1,0,1.8,0.8,1.8,1.8&#10;&#9;&#9;c0,0,0,0,0,0v220.9C344.8,358.7,344,359.5,343,359.5z M161.8,355.9h179.4V138.7H161.8L161.8,355.9z"/>
	<circle class="st1_store-closed-41" cx="279.8" cy="121.4" r="2.9"/>
	<path class="st1_store-closed-41" d="M266.1,123.3h-45.8c-1-0.1-1.8-1-1.7-2c0.1-0.9,0.8-1.6,1.7-1.7h45.8c1-0.1,1.9,0.7,2,1.7c0.1,1-0.7,1.9-1.7,2&#10;&#9;&#9;C266.3,123.3,266.2,123.3,266.1,123.3z"/>
	<path class="st1_store-closed-41" d="M251.5,388.8c-6.8,0-12.2-5.5-12.2-12.2s5.5-12.2,12.2-12.2c6.8,0,12.2,5.5,12.2,12.2l0,0&#10;&#9;&#9;C263.7,383.3,258.2,388.8,251.5,388.8z M251.5,367.9c-4.7,0-8.6,3.8-8.6,8.6c0,4.7,3.8,8.6,8.6,8.6c4.7,0,8.6-3.8,8.6-8.6v0&#10;&#9;&#9;C260,371.8,256.2,367.9,251.5,367.9z"/>
	<polygon class="st4_store-closed-41" points="182.6,168.4 137.3,168.4 161.9,136.5 197.5,136.5 &#9;"/>
	<path class="st1_store-closed-41" d="M182.6,170.2h-45.3c-1,0-1.8-0.8-1.9-1.8c0-0.4,0.1-0.9,0.4-1.2l24.6-31.9c0.3-0.4,0.9-0.7,1.4-0.7h35.6&#10;&#9;&#9;c1,0,1.8,0.8,1.8,1.9c0,0.3-0.1,0.5-0.2,0.8l-14.9,31.9C183.9,169.7,183.3,170.2,182.6,170.2z M141,166.5h40.4l13.2-28.2h-31.7&#10;&#9;&#9;L141,166.5z"/>
	<path class="st4_store-closed-41" d="M137.3,168.4h45.2l0,0v7.5c0,6.4-9.2,17.6-15.6,17.6c0,0,0,0,0,0h-14c-6.4,0-15.6-11.2-15.6-17.6c0,0,0,0,0,0&#10;&#9;&#9;V168.4L137.3,168.4z"/>
	<path class="st1_store-closed-41" d="M161.3,195.3h-2.7c-12.8,0-23.1-10.4-23.1-23.1v-3.8c0-1,0.8-1.8,1.8-1.8c0,0,0,0,0,0h45.3&#10;&#9;&#9;c1,0,1.8,0.8,1.8,1.8c0,0,0,0,0,0v3.8C184.4,184.9,174,195.2,161.3,195.3z M139.1,170.2v2c0,10.7,8.7,19.4,19.4,19.4h2.7&#10;&#9;&#9;c10.7,0,19.4-8.7,19.4-19.4v-2H139.1z"/>
	<polygon class="st3_store-closed-41" points="228.7,168.4 183.4,168.4 198.2,136.5 233.7,136.5 &#9;"/>
	<path class="st1_store-closed-41" d="M228.7,170.2h-45.3c-0.6,0-1.2-0.3-1.5-0.8c-0.3-0.5-0.4-1.2-0.1-1.8l14.7-31.9c0.3-0.6,0.9-1.1,1.7-1.1h35.6&#10;&#9;&#9;c1,0,1.8,0.8,1.8,1.8c0,0.1,0,0.2,0,0.3l-5,31.9C230.4,169.5,229.6,170.2,228.7,170.2z M186.3,166.5h40.8l4.5-28.2h-32.2&#10;&#9;&#9;L186.3,166.5z"/>
	<path class="st3_store-closed-41" d="M183.4,168.4h45.2l0,0v3.5c0,6.4-5.2,20.6-11.6,20.6c0,0,0,0,0,0H195c-6.4,0-11.6-14.2-11.6-20.6c0,0,0,0,0,0&#10;&#9;&#9;L183.4,168.4L183.4,168.4L183.4,168.4z"/>
	<path class="st1_store-closed-41" d="M207.4,195.3h-2.7c-12.8,0-23.1-10.4-23.1-23.1v-3.8c0-1,0.8-1.8,1.8-1.8c0,0,0,0,0,0h45.3&#10;&#9;&#9;c1,0,1.8,0.8,1.8,1.8c0,0,0,0,0,0v3.8C230.5,184.9,220.2,195.2,207.4,195.3z M185.3,170.2v2c0,10.7,8.7,19.4,19.4,19.4h2.7&#10;&#9;&#9;c10.7,0,19.4-8.7,19.4-19.4v-2H185.3z"/>
	<polygon class="st4_store-closed-41" points="274.8,168.4 229.6,168.4 234.4,136.5 270,136.5 &#9;"/>
	<path class="st1_store-closed-41" d="M274.8,170.2h-45.2c-0.5,0-1.1-0.2-1.4-0.6c-0.3-0.4-0.5-0.9-0.4-1.5l4.9-31.9c0.1-0.9,0.9-1.6,1.8-1.6H270&#10;&#9;&#9;c0.9,0,1.7,0.7,1.8,1.6l4.8,31.9c0.2,1-0.5,1.9-1.5,2.1C275,170.2,274.9,170.2,274.8,170.2L274.8,170.2z M231.7,166.5h41l-4.3-28.2&#10;&#9;&#9;H236L231.7,166.5z"/>
	<path class="st4_store-closed-41" d="M229.6,168.4h45.3l0,0v2.5c0,6.4-5.2,21.6-11.6,21.6l0,0h-22.1c-6.4,0-11.6-15.2-11.6-21.6c0,0,0,0,0,0&#10;&#9;&#9;L229.6,168.4L229.6,168.4z"/>
	<path class="st1_store-closed-41" d="M253.5,195.3h-2.7c-12.8,0-23.1-10.4-23.1-23.1v-3.8c0-1,0.8-1.8,1.8-1.8h45.3c1,0,1.8,0.8,1.8,1.8&#10;&#9;&#9;c0,0,0,0,0,0v3.8C276.6,184.9,266.3,195.2,253.5,195.3z M231.4,170.2v2c0,10.7,8.7,19.4,19.4,19.4h2.7c10.8,0,19.5-8.7,19.5-19.5&#10;&#9;&#9;c0,0,0,0,0,0v-2L231.4,170.2z"/>
	<polygon class="st3_store-closed-41" points="321,168.4 275.7,168.4 270.7,136.5 306.2,136.5 &#9;"/>
	<path class="st1_store-closed-41" d="M321,170.2h-45.3c-0.9,0-1.7-0.6-1.8-1.5l-5-31.9c-0.2-1,0.5-1.9,1.5-2.1c0.1,0,0.2,0,0.3,0h35.6&#10;&#9;&#9;c0.7,0,1.4,0.4,1.7,1.1l14.7,31.9c0.3,0.6,0.2,1.2-0.1,1.8C322.2,169.9,321.6,170.2,321,170.2z M277.3,166.5h40.8l-13-28.2h-32.3&#10;&#9;&#9;L277.3,166.5z"/>
	<path class="st3_store-closed-41" d="M275.7,168.4H321l0,0v5.5c0,6.4-5.2,17.6-11.6,17.6l0,0h-22.1c-6.4,0-11.6-11.2-11.6-17.6c0,0,0,0,0,0&#10;&#9;&#9;L275.7,168.4L275.7,168.4z"/>
	<path class="st1_store-closed-41" d="M299.7,195.3H297c-12.8,0-23.1-10.4-23.1-23.1v-3.8c0-1,0.8-1.8,1.8-1.8H321c1,0,1.8,0.8,1.8,1.8v3.8&#10;&#9;&#9;C322.8,184.9,312.5,195.3,299.7,195.3z M277.5,170.2v2c0,10.7,8.7,19.4,19.5,19.4h2.7c10.7,0,19.4-8.7,19.5-19.4v-2L277.5,170.2z"/>
	<polygon class="st4_store-closed-41" points="367.1,168.4 321.9,168.4 306.9,136.5 342.5,136.5 &#9;"/>
	<path class="st1_store-closed-41" d="M367.1,170.2h-45.2c-0.7,0-1.4-0.4-1.7-1.1l-14.9-31.9c-0.3-0.6-0.2-1.2,0.1-1.8c0.3-0.5,0.9-0.8,1.5-0.9h35.6&#10;&#9;&#9;c0.6,0,1.1,0.3,1.5,0.7l24.6,31.9c0.6,0.8,0.5,1.9-0.2,2.6C368,170.1,367.6,170.2,367.1,170.2L367.1,170.2z M323,166.5h40.4&#10;&#9;&#9;l-21.8-28.2h-31.8L323,166.5z"/>
	<path class="st4_store-closed-41" d="M321.9,168.4h45.2l0,0v2.5c0,6.4-5.2,21.6-11.6,21.6l0,0h-22.1c-6.4,0-11.6-15.2-11.6-21.6c0,0,0,0,0,0&#10;&#9;&#9;L321.9,168.4L321.9,168.4z"/>
	<path class="st1_store-closed-41" d="M345.8,195.3h-2.7c-12.8,0-23.1-10.3-23.1-23.1v-3.8c0-1,0.8-1.8,1.8-1.8h45.2c1,0,1.8,0.8,1.8,1.8v3.8&#10;&#9;&#9;C368.9,184.9,358.6,195.2,345.8,195.3z M323.7,170.2v2c0,10.7,8.7,19.4,19.5,19.4h2.7c10.7,0,19.4-8.7,19.5-19.4v-2H323.7z"/>
</g>
<g id="closed_store-closed-41">
	<path class="st5_store-closed-41" d="M178.8,255.4h146.8c2.6,0,4.8,2.1,4.8,4.8v39.2c0,2.6-2.1,4.8-4.8,4.8H178.8c-2.6,0-4.8-2.1-4.8-4.8v-39.2&#10;&#9;&#9;C174,257.5,176.2,255.4,178.8,255.4z"/>
	<path class="st1_store-closed-41" d="M321.7,306H182.8c-5.8,0-10.6-4.7-10.6-10.6c0,0,0,0,0,0v-31.3c0-5.8,4.7-10.5,10.6-10.6h138.9&#10;&#9;&#9;c5.8,0,10.5,4.7,10.5,10.6v31.3C332.2,301.2,327.5,306,321.7,306C321.7,306,321.7,306,321.7,306z M182.8,257.2&#10;&#9;&#9;c-3.8,0-6.9,3.1-6.9,6.9v31.3c0,3.8,3.1,6.9,6.9,6.9h138.9c3.8,0,6.9-3.1,6.9-6.9v-31.3c0-3.8-3.1-6.9-6.9-6.9L182.8,257.2z"/>
	<path class="st1_store-closed-41" d="M311.7,257.2c-0.3,0-0.6-0.1-0.9-0.2l-58.6-33l-58.6,33c-0.8,0.6-2,0.3-2.5-0.5c-0.6-0.8-0.3-2,0.5-2.5&#10;&#9;&#9;c0.1,0,0.1-0.1,0.2-0.1l59.5-33.5c0.6-0.3,1.2-0.3,1.8,0l59.6,33.5c0.9,0.5,1.2,1.6,0.7,2.5c0,0,0,0,0,0&#10;&#9;&#9;C313,256.9,312.4,257.2,311.7,257.2z"/>
	<circle class="st2_store-closed-41 targetColor" cx="252.2" cy="220.4" r="9.5" style="fill: rgb(104, 225, 253);"/>
	<path class="st1_store-closed-41" d="M252.2,231.8c-6.3,0-11.4-5.1-11.4-11.3s5.1-11.4,11.3-11.4s11.4,5.1,11.4,11.3c0,0,0,0,0,0&#10;&#9;&#9;C263.5,226.7,258.5,231.8,252.2,231.8z M252.2,212.8c-4.2,0-7.7,3.4-7.7,7.7s3.4,7.7,7.7,7.7s7.7-3.4,7.7-7.7&#10;&#9;&#9;C259.9,216.2,256.4,212.8,252.2,212.8L252.2,212.8L252.2,212.8z"/>
	<path class="st1_store-closed-41" d="M204,273.4c-0.7-0.8-1.6-1.5-2.6-1.9c-0.8-0.3-1.6-0.5-2.4-0.5c-1.2,0-2.3,0.2-3.4,0.7c-1,0.4-1.9,1-2.6,1.8&#10;&#9;&#9;c-0.7,0.8-1.3,1.7-1.7,2.7c-0.4,1.1-0.6,2.2-0.6,3.4c0,1.2,0.2,2.4,0.6,3.5c0.4,1,0.9,2,1.7,2.8c0.7,0.8,1.6,1.4,2.6,1.9&#10;&#9;&#9;c1.1,0.5,2.2,0.7,3.4,0.7c1,0,1.9-0.2,2.8-0.7c1-0.5,1.9-1.3,2.6-2.2l3.5,2.5c-1,1.4-2.4,2.5-3.9,3.2c-1.6,0.7-3.3,1-5,1&#10;&#9;&#9;c-1.7,0-3.5-0.3-5.1-0.9c-3-1.1-5.4-3.5-6.6-6.5c-0.6-1.6-1-3.4-0.9-5.1c0-1.8,0.3-3.6,0.9-5.2c0.6-1.5,1.5-2.9,2.6-4&#10;&#9;&#9;c1.1-1.1,2.5-2,4-2.5c1.6-0.6,3.4-0.9,5.1-0.9c1.5,0,3.1,0.3,4.5,0.9c1.5,0.7,2.8,1.7,3.9,2.9L204,273.4z"/>
	<path class="st1_store-closed-41" d="M210.8,267.8h4.2v20.1h10.2v3.9h-14.4V267.8z"/>
	<path class="st1_store-closed-41" d="M227,279.9c0-1.8,0.3-3.6,1-5.2c0.6-1.5,1.5-2.9,2.6-4c1.1-1.1,2.5-2,4-2.5c3.3-1.2,6.9-1.2,10.2-0.1&#10;&#9;&#9;c1.5,0.6,2.9,1.4,4,2.5c1.1,1.1,2,2.5,2.6,4c0.7,1.7,1,3.4,0.9,5.2c0,1.7-0.3,3.5-0.9,5.1c-0.6,1.5-1.5,2.9-2.6,4&#10;&#9;&#9;c-1.2,1.1-2.5,2-4,2.6c-1.6,0.6-3.4,1-5.1,1c-1.7,0-3.5-0.3-5.1-0.9c-3-1.1-5.4-3.5-6.6-6.5C227.3,283.4,227,281.6,227,279.9z&#10;&#9;&#9; M231.5,279.6c0,1.2,0.2,2.4,0.6,3.5c0.4,1,0.9,2,1.7,2.8c0.7,0.8,1.6,1.4,2.6,1.9c1.1,0.5,2.2,0.7,3.4,0.7c1.2,0,2.3-0.2,3.4-0.7&#10;&#9;&#9;c1-0.4,1.9-1.1,2.6-1.9c0.7-0.8,1.3-1.8,1.7-2.8c0.4-1.1,0.6-2.3,0.6-3.5c0-1.1-0.2-2.3-0.6-3.4c-0.4-1-0.9-1.9-1.7-2.7&#10;&#9;&#9;c-0.7-0.8-1.6-1.4-2.6-1.8c-1.1-0.5-2.2-0.7-3.4-0.7c-1.2,0-2.3,0.2-3.4,0.7c-1,0.4-1.9,1-2.6,1.8c-0.7,0.8-1.3,1.7-1.7,2.7&#10;&#9;&#9;C231.7,277.3,231.5,278.4,231.5,279.6L231.5,279.6z"/>
	<path class="st1_store-closed-41" d="M268.2,272.9c-0.4-0.6-1.1-1.1-1.8-1.4c-0.7-0.3-1.5-0.5-2.4-0.5c-0.5,0-1,0.1-1.4,0.2&#10;&#9;&#9;c-0.4,0.1-0.9,0.3-1.2,0.5c-0.4,0.3-0.7,0.6-0.9,1c-0.2,0.4-0.3,0.9-0.3,1.4c0,0.7,0.3,1.4,0.8,1.9c0.6,0.5,1.3,0.9,2.1,1.1&#10;&#9;&#9;c0.8,0.3,1.7,0.6,2.7,0.9c1,0.3,1.9,0.7,2.7,1.2c0.8,0.5,1.6,1.2,2.1,2.1c0.6,1,0.9,2.2,0.9,3.4c0,1.2-0.2,2.3-0.7,3.4&#10;&#9;&#9;c-0.4,0.9-1.1,1.7-1.9,2.4c-0.8,0.6-1.8,1.1-2.8,1.4c-1.1,0.3-2.2,0.5-3.3,0.5c-1.5,0-2.9-0.2-4.3-0.7c-1.4-0.5-2.6-1.4-3.6-2.5&#10;&#9;&#9;l3.2-3.1c0.5,0.8,1.2,1.4,2,1.8c0.8,0.4,1.8,0.7,2.7,0.7c0.5,0,1-0.1,1.5-0.2c0.5-0.1,0.9-0.3,1.4-0.6c0.4-0.3,0.7-0.6,1-1&#10;&#9;&#9;c0.2-0.4,0.4-0.9,0.4-1.4c0-0.8-0.3-1.5-0.9-2c-0.6-0.5-1.3-0.9-2-1.2c-0.8-0.3-1.8-0.6-2.7-0.9c-1-0.3-1.9-0.7-2.7-1.2&#10;&#9;&#9;c-0.8-0.5-1.6-1.2-2.1-2c-0.6-1-0.9-2.2-0.8-3.4c0-1.1,0.2-2.2,0.8-3.2c0.5-0.9,1.2-1.7,2-2.2c0.9-0.6,1.8-1.1,2.8-1.3&#10;&#9;&#9;c2.3-0.6,4.7-0.6,6.9,0.1c1.2,0.4,2.3,1,3.2,1.9L268.2,272.9z"/>
	<path class="st1_store-closed-41" d="M275.8,267.8h15.8v3.9h-11.6v5.9h11v3.9h-11v6.5h12.2v3.9h-16.5V267.8z"/>
	<path class="st1_store-closed-41" d="M296.5,267.8h9.4c1.5,0,3.1,0.2,4.6,0.7c1.4,0.5,2.8,1.2,3.9,2.2c1.2,1,2.1,2.3,2.7,3.7c0.7,1.7,1,3.5,1,5.3&#10;&#9;&#9;c0.1,3.5-1.4,6.8-4.2,9c-1.2,1-2.6,1.7-4.1,2.2c-1.4,0.5-2.9,0.7-4.4,0.7h-8.9L296.5,267.8z M303.9,287.9c1.3,0,2.5-0.1,3.8-0.5&#10;&#9;&#9;c1.1-0.3,2.2-0.8,3.1-1.4c0.9-0.6,1.6-1.5,2.1-2.5c0.5-1.2,0.8-2.4,0.8-3.7c0-1.3-0.2-2.5-0.7-3.7c-0.4-1-1.1-1.8-1.9-2.5&#10;&#9;&#9;c-0.8-0.7-1.8-1.1-2.8-1.4c-1.2-0.3-2.4-0.5-3.6-0.5h-3.9v16.2L303.9,287.9z"/>
</g>
</svg>